<?xml version="1.0" encoding="UTF-8" standalone="no"?>
<!-- Created with Inkscape (http://www.inkscape.org/) -->

<svg
   width="161.32031mm"
   height="120.66529mm"
   viewBox="0 0 161.32031 120.66529"
   version="1.1"
   id="svg1"
   xml:space="preserve"
   xmlns:inkscape="http://www.inkscape.org/namespaces/inkscape"
   xmlns:sodipodi="http://sodipodi.sourceforge.net/DTD/sodipodi-0.dtd"
   xmlns="http://www.w3.org/2000/svg"
   xmlns:svg="http://www.w3.org/2000/svg"><sodipodi:namedview
     id="namedview1"
     pagecolor="#ffffff"
     bordercolor="#000000"
     borderopacity="0.25"
     inkscape:showpageshadow="2"
     inkscape:pageopacity="0.0"
     inkscape:pagecheckerboard="0"
     inkscape:deskcolor="#d1d1d1"
     inkscape:document-units="mm"><inkscape:page
       x="0"
       y="0"
       width="161.32031"
       height="120.66529"
       id="page2"
       margin="0"
       bleed="0" /></sodipodi:namedview><defs
     id="defs1" /><g
     inkscape:label="Layer 1"
     inkscape:groupmode="layer"
     id="layer1"
     transform="translate(-316.44475,151.77219)"><path
       style="fill:#ffffff;fill-opacity:1"
       d="m 387.80643,-31.276794 c -3.87756,-0.42257 -4.98595,-0.73812 -6.08712,-1.73296 -1.21394,-1.09672 -1.43717,-1.93909 -1.84925,-6.97844 -0.54225,-6.63123 -2.29551,-24.95437 -2.51269,-26.25989 l -0.12104,-0.72761 h 19.85334 19.85335 l -0.14858,1.12448 c -0.14606,1.10546 -0.72956,7.17061 -2.24046,23.28829 -0.72495,7.73359 -0.79686,8.18511 -1.43728,9.02474 -0.86938,1.13981 -1.95438,1.63671 -4.40819,2.01883 -2.50679,0.39037 -17.90597,0.56907 -20.90208,0.24256 z m 10.20203,-5.64736 c 0.49542,-0.36226 0.5136,-0.80305 0.5136,-12.45675 0,-11.65369 -0.0182,-12.09448 -0.5136,-12.45674 -0.65146,-0.47636 -1.2319,-0.47631 -1.88323,1.8e-4 -0.49751,0.36395 -0.51097,0.75131 -0.42988,12.36927 0.0817,11.70007 0.0969,12.00487 0.62462,12.45656 0.65561,0.5612 1.01516,0.57983 1.68849,0.0875 z m -10.26818,-1.15695 c 0.433,-0.55082 0.46623,0.0618 -0.59409,-10.95295 -0.50866,-5.284 -0.92538,-10.04815 -0.92604,-10.587 -0.003,-2.04513 -1.26964,-3.20236 -2.39313,-2.18561 -0.69399,0.62805 -0.68466,0.92142 0.40754,12.82264 0.50932,5.54987 0.92604,10.20152 0.92604,10.337 0,0.13548 0.24421,0.49055 0.5427,0.78903 0.59945,0.59945 1.4649,0.50466 2.03698,-0.22311 z m 20.70204,0.26409 c 0.54771,-0.44351 0.62753,-0.95145 1.21615,-7.73907 0.34648,-3.99542 0.79165,-9.05034 0.98927,-11.23315 0.19795,-2.18642 0.26326,-4.23278 0.14544,-4.55667 -0.31009,-0.85245 -1.46791,-1.07247 -2.13472,-0.40566 -0.47756,0.47756 -0.6208,1.55407 -1.42164,10.6842 -0.48981,5.58422 -0.96142,10.65751 -1.04802,11.27397 -0.13501,0.9611 -0.0627,1.21563 0.50765,1.78594 0.7918,0.7918 0.97812,0.81212 1.74587,0.19044 z m -33.81031,-31.5005 c -0.24627,-0.15623 -0.32041,-0.84085 -0.26459,-2.44334 l 0.0776,-2.2263 4.9715,-0.072 c 4.43953,-0.0643 4.98718,-0.12094 5.11803,-0.52916 0.68916,-2.15001 1.39129,-2.66663 2.93275,-2.1579 0.50811,0.16769 1.0137,0.20143 1.13377,0.0757 0.16967,-0.17772 1.05749,-5.00406 1.05749,-5.74867 0,-0.0918 -0.2301,-0.16686 -0.51133,-0.16686 -0.53624,0 -0.57459,0.0823 -1.07965,2.31592 -0.17285,0.76443 -0.4136,1.45126 -0.535,1.52629 -0.27825,0.17197 -3.69485,-1.21602 -3.69485,-1.50103 0,-0.11591 0.37151,-1.13658 0.82557,-2.26815 1.10128,-2.7445 2.63591,-7.28309 2.50641,-7.41258 -0.0988,-0.0988 -1.39842,2.13543 -3.84611,6.61194 -0.61666,1.12779 -1.23424,2.05052 -1.37241,2.05052 -0.78744,0 -4.46346,-2.43268 -4.46346,-2.95378 0,-0.16755 0.61295,-1.26813 1.36212,-2.44574 0.74916,-1.17761 2.96525,-4.69067 4.92464,-7.8068 l 3.56253,-5.665696 -0.69162,-2.80097 c -0.3804,-1.54053 -0.69331,-3.09862 -0.69537,-3.46242 -0.002,-0.3638 -0.11414,-0.83602 -0.24908,-1.04937 -0.27497,-0.43476 -0.145,-0.70619 -2.02268,4.22437 -1.31604,3.455776 -1.8,4.019006 -4.00387,4.659696 -1.57406,0.45759 -5.43646,0.39843 -5.92565,-0.0908 -0.14295,-0.14295 0.83983,-2.045546 2.43774,-4.719316 3.36892,-5.63721 4.8398,-8.3055 4.67125,-8.47404 -0.14164,-0.14164 -3.44813,3.62569 -7.06758,8.05263 -2.70125,3.3039 -3.57219,3.843226 -6.22641,3.855686 -2.08091,0.01 -5.235,-0.972066 -6.58613,-2.050196 l -0.7674,-0.61235 1.69344,-1.28972 c 8.60195,-6.55119 13.99657,-10.79895 13.99657,-11.021 0,-0.32462 -0.76816,0.117 -8.91387,5.12465 -3.52018,2.16406 -6.94985,4.17774 -7.6215,4.47484 -2.30896,1.02136 -5.4858,0.51695 -8.93674,-1.41895 -1.69977,-0.95353 -3.80049,-2.54051 -4.00103,-3.02256 -0.0858,-0.20611 1.56577,-0.87615 4.81559,-1.95373 6.03028,-1.99954 18.62268,-6.40736 19.89505,-6.96402 0.83325,-0.36454 0.85976,-0.40601 0.26458,-0.4138 -0.61719,-0.008 -2.53757,0.47568 -17.46249,4.39901 -8.17902,2.15002 -10.49894,2.07072 -14.74744,-0.50413 -2.71138,-1.64327 -6.14254,-4.9461 -6.15184,-5.92175 -0.002,-0.19411 1.24162,-0.35709 3.63521,-0.47646 8.05624,-0.40178 24.21991,-1.50754 29.4349,-2.01364 1.38245,-0.13416 2.78143,-0.247 3.10885,-0.25075 0.32742,-0.004 0.59531,-0.14283 0.59531,-0.30905 0,-0.22262 -1.58544,-0.25818 -6.01927,-0.135 -3.31059,0.092 -10.90083,0.24366 -16.86718,0.33708 l -10.84792,0.16987 -1.94062,-0.6776 c -4.5902,-1.60273 -8.67979,-5.09664 -10.6758,-9.12078 -0.45255,-0.91237 -0.75161,-1.73006 -0.66459,-1.81708 0.087,-0.087 5.19445,0.63034 11.34983,1.59414 13.60365,2.13005 32.81771,4.93225 33.62297,4.90362 0.55923,-0.0199 0.55568,-0.0325 -0.0741,-0.26239 -0.96891,-0.35374 -10.71419,-2.36098 -23.68021,-4.87742 -6.2574,-1.21443 -12.27005,-2.40903 -13.36146,-2.65467 -2.18349,-0.49142 -5.01903,-1.79938 -6.90967,-3.18723 -1.99908,-1.46747 -4.53218,-4.34997 -5.5859,-6.3564 -0.86589,-1.6488 -1.94017,-5.07054 -1.67514,-5.33557 0.0525,-0.0525 2.39916,0.73354 5.21484,1.74672 2.81568,1.01318 9.25474,3.28908 14.30902,5.05756 5.0543,1.76848 10.88836,3.85358 12.96459,4.63357 2.07623,0.77999 3.80677,1.38746 3.84564,1.34993 0.0389,-0.0375 -0.34808,-0.76365 -0.85989,-1.6136 -0.51182,-0.84995 -0.93057,-1.68432 -0.93057,-1.85416 0,-0.1874 1.58637,0.24391 4.03489,1.097 2.2192,0.77319 7.55207,2.57203 11.85084,3.99741 l 7.81594,2.59159 1.29386,2.64584 c 1.11612,2.28238 1.62348,2.97294 3.69343,5.02708 2.41582,2.39736 5.99094,4.77474 6.89662,4.5861 0.25097,-0.0523 0.88234,-1.16542 1.55072,-2.73402 0.62006,-1.4552 1.44774,-3.14948 1.83929,-3.76505 0.39155,-0.61557 0.71191,-1.18112 0.71191,-1.25677 0,-0.0757 -0.36291,-0.13755 -0.80646,-0.13755 h -0.80649 l 0.79946,-1.16198 c 0.4397,-0.63909 1.34043,-1.63816 2.00161,-2.22015 l 1.20215,-1.05818 -0.86442,-0.51184 c -0.8032,-0.4756 -1.7616,-1.7795 -1.50014,-2.04096 0.0631,-0.0631 0.94633,-0.008 1.96273,0.12324 1.01639,0.13089 3.63392,0.24478 5.81674,0.2531 4.79705,0.0183 6.04204,0.2656 7.27604,1.44542 0.61251,0.58563 1.29977,0.94578 2.02989,1.06377 1.67484,0.27064 3.40529,1.48383 3.79326,2.65939 0.29402,0.89091 0.23722,2.88435 -0.0916,3.21313 -0.0735,0.0736 -0.50126,-0.13798 -0.95045,-0.47009 -0.781,-0.57741 -0.91519,-0.59162 -3.0679,-0.32491 -2.61779,0.32432 -3.30073,0.76548 -3.30073,2.13217 0,1.07777 1.50233,4.81932 2.01391,5.01563 0.44529,0.17087 3.36419,-1.1752 5.05828,-2.33266 3.14381,-2.14796 6.29559,-5.96309 7.35104,-8.89819 l 0.46428,-1.29112 3.4703,-1.13766 c 1.90867,-0.62571 7.21189,-2.4317 11.78492,-4.0133 4.57304,-1.58161 8.36692,-2.82335 8.43084,-2.75943 0.1192,0.1192 -0.75963,1.78244 -1.67698,3.17376 -0.5123,0.777 -0.51223,0.77993 0.0135,0.5689 1.44927,-0.58174 13.21207,-4.8462 19.04928,-6.90609 3.63802,-1.28382 9.0486,-3.20485 12.02352,-4.26897 2.97492,-1.06411 5.46506,-1.87864 5.53364,-1.81005 0.25544,0.25543 -0.82628,3.48934 -1.76673,5.28184 -1.17064,2.23122 -4.72456,5.91505 -6.98558,7.24093 -2.81347,1.64984 -4.72606,2.21487 -13.30277,3.92999 -20.13128,4.02572 -29.38547,5.9587 -29.62264,6.18744 -0.15614,0.15059 0.25133,0.18372 1.05833,0.0861 5.41586,-0.65541 24.44923,-3.5246 36.75284,-5.5403 3.92161,-0.64248 7.17186,-1.12649 7.22278,-1.07557 0.25164,0.25164 -0.38889,1.70257 -1.50644,3.41239 -2.47755,3.79058 -6.82538,6.96939 -10.94923,8.00527 -1.65974,0.41691 -2.89483,0.4281 -16.2665,0.14736 -17.45413,-0.36646 -18.48694,-0.36951 -18.16132,-0.0538 0.43622,0.42298 17.3959,1.72542 33.25812,2.55411 2.75936,0.14416 3.37344,0.2492 3.37344,0.57704 0,0.61256 -4.4396,4.84784 -6.10337,5.82249 -2.52598,1.47973 -4.3605,2.02832 -6.72892,2.01222 -2.14777,-0.0146 -5.59243,-0.81308 -20.83594,-4.82977 -2.72852,-0.71896 -4.96094,-1.20704 -4.96094,-1.08462 0,0.39929 8.38216,3.437 18.7175,6.78325 3.75223,1.21485 6.41511,2.21148 6.41615,2.40135 0.003,0.48819 -2.5221,2.38547 -4.49968,3.38136 -2.57855,1.29854 -4.56704,1.80892 -6.40016,1.6427 -1.76794,-0.16032 -2.10801,-0.34049 -11.98039,-6.34733 -3.49004,-2.12351 -6.39427,-3.81219 -6.45384,-3.75262 -0.2365,0.2365 0.80297,1.08982 7.30634,5.9979 3.71921,2.80688 7.11384,5.40531 7.54364,5.77429 l 0.78143,0.67089 -1.33857,0.72854 c -2.1981,1.19636 -4.18981,1.76615 -6.17359,1.76615 -2.497,0 -3.3096,-0.41697 -5.22834,-2.68282 -5.86283,-6.92343 -7.84278,-9.19621 -8.02243,-9.20897 -0.31213,-0.0222 0.51445,1.47923 4.1393,7.5185 3.83859,6.395376 3.83674,6.057206 0.0333,6.079266 -2.7444,0.0159 -4.52172,-0.52476 -5.4839,-1.668246 -0.33228,-0.39489 -1.1799,-2.29134 -1.88359,-4.21432 -1.25374,-3.42608 -1.7603,-4.22252 -1.76098,-2.76872 -1.9e-4,0.40018 -0.29784,1.95558 -0.66146,3.45643 -0.36361,1.50086 -0.66111,2.90338 -0.66111,3.1167 0,0.21332 2.15263,3.852186 4.78363,8.086376 2.631,4.23418 4.8434,7.85425 4.91645,8.0446 0.25633,0.66801 -4.15125,3.39718 -4.65273,2.88096 -0.13423,-0.13817 -1.10689,-1.79903 -2.16148,-3.6908 -2.45038,-4.39563 -2.88367,-5.1014 -2.88488,-4.69905 -0.001,0.39314 2.55038,7.30651 3.07217,8.32393 0.5577,1.08743 0.47548,1.24348 -1.02264,1.94095 -1.86855,0.86993 -2.23501,0.8388 -2.44812,-0.20802 -0.48249,-2.37007 -0.68257,-2.84427 -1.2001,-2.84427 -0.63096,0 -0.63792,0.23736 -0.0812,2.77082 0.42182,1.91968 0.47973,2.01558 1.59286,2.63772 0.97416,0.54447 1.27992,0.60211 1.95167,0.36793 0.57777,-0.20141 1.00607,-0.19088 1.55944,0.0383 0.68781,0.2849 0.95332,0.69046 1.44187,2.20244 0.14032,0.43426 0.5095,0.47224 4.15437,0.42742 3.16012,-0.0389 4.0491,0.0278 4.23237,0.31714 0.35266,0.55684 0.2915,4.04555 -0.0774,4.41445 -0.24198,0.24197 -5.60755,0.31653 -22.55573,0.31344 -12.23103,-0.002 -22.39219,-0.10172 -22.58036,-0.2211 z m 13.78472,-3.13029 c 0.0853,-0.82685 0.095,-1.60076 0.0214,-1.71979 -0.26522,-0.42913 -1.12904,-0.20434 -1.30138,0.33864 -0.18245,0.57485 0.55351,2.88451 0.91913,2.88451 0.11313,0 0.27551,-0.67651 0.36085,-1.50336 z m 4.22975,-1.5866 c -0.0797,-0.20768 -0.39764,-0.34154 -0.70654,-0.29746 -0.45849,0.0654 -0.55517,0.25019 -0.52644,1.00617 0.0194,0.50933 0.18626,1.28323 0.3709,1.71979 l 0.33572,0.79375 0.33563,-1.42232 c 0.18459,-0.78228 0.27042,-1.59225 0.19073,-1.79993 z m 11.70464,2.2803 c 0.44313,-0.85692 0.43782,-2.66486 -0.008,-2.8036 -0.14552,-0.0453 -0.42678,0.0204 -0.62503,0.14581 -0.27563,0.17444 -0.31621,0.60922 -0.17246,1.84778 0.10339,0.89082 0.23277,1.61967 0.28751,1.61967 0.0547,0 0.28793,-0.36435 0.51821,-0.80966 z m 4.1124,-0.28708 c 0.44762,-0.87739 0.50274,-1.22134 0.27564,-1.71979 -0.2968,-0.65138 -0.93246,-0.82578 -1.23364,-0.33845 -0.17637,0.28536 0.088,3.15498 0.29061,3.15498 0.0593,0 0.35966,-0.49353 0.66739,-1.09674 z m -8.46786,-3.20274 c 0.22947,-0.52134 0.75572,-1.04437 1.33664,-1.32845 l 0.95815,-0.46855 -0.56128,-2.7034 c -0.45215,-2.17778 -0.65781,-2.72188 -1.05775,-2.79843 -0.46606,-0.0892 -0.48484,0.0445 -0.30669,2.18322 l 0.18978,2.27826 -1.01623,0.42931 c -1.65284,0.69826 -2.96518,0.70494 -4.5881,0.0234 -0.86341,-0.36261 -1.445,-0.76863 -1.43011,-0.99839 0.0138,-0.21298 0.10902,-1.13138 0.21158,-2.04088 0.17276,-1.53202 0.14813,-1.65365 -0.33481,-1.65365 -0.55988,0 -0.61744,0.16837 -1.0854,3.175 -0.38042,2.44416 -0.40026,2.38125 0.75098,2.38125 1.14964,0 2.41693,0.81933 2.41693,1.56261 0,0.73406 0.23198,0.81864 2.2453,0.81864 1.88114,0 1.89481,-0.005 2.27101,-0.8599 z m -2.71715,-24.59302 c 0.58148,-0.581476 0.34444,-0.952496 -0.60854,-0.952496 -1.02337,0 -1.04468,0.0248 -0.65215,0.75823 0.3121,0.583156 0.79708,0.657886 1.26069,0.194266 z M 394.01522,-102.42 c 0.53993,-0.59661 0.36178,-1.58062 -0.20152,-1.11312 -0.2129,0.17669 -0.47898,0.18912 -0.72448,0.0339 -0.86638,-0.54795 -1.07283,0.0114 -0.373,1.01055 0.50544,0.72161 0.69889,0.73184 1.299,0.0687 z m 7.02038,-0.84461 c 0,-0.55737 -0.28347,-0.62803 -0.72962,-0.18187 -0.232,0.23199 -0.40528,0.22413 -0.71438,-0.0324 -0.34517,-0.28646 -0.40809,-0.25501 -0.40809,0.20398 0,0.29847 0.19275,0.73541 0.42833,0.97099 0.3947,0.39471 0.46738,0.39297 0.92604,-0.0221 0.27374,-0.24774 0.49772,-0.6701 0.49772,-0.93859 z m -3.65886,-1.71979 c 0.26612,-0.24084 0.48386,-0.71453 0.48386,-1.05266 0,-0.5615 -0.0579,-0.58838 -0.66864,-0.31013 -0.50703,0.23102 -0.74364,0.22965 -0.97896,-0.006 -0.77278,-0.77279 -1.03117,0.20551 -0.32178,1.2183 0.49166,0.70194 0.83722,0.73686 1.48552,0.15016 z m -6.68841,-0.98297 c 0.23707,-0.28565 0.10743,-0.51004 -0.61141,-1.05833 -0.50175,-0.3827 -0.99265,-0.69582 -1.09089,-0.69582 -0.32628,0 0.165,1.44965 0.60524,1.78594 0.55071,0.42067 0.72576,0.4156 1.09706,-0.0318 z m 13.32492,0.0318 c 0.43758,-0.33425 0.93241,-1.78594 0.60877,-1.78594 -0.0963,0 -0.57937,0.32257 -1.07347,0.71682 -0.67789,0.5409 -0.8288,0.80063 -0.61493,1.05833 0.3534,0.42582 0.53395,0.42762 1.07963,0.0108 z m -10.2997,-2.11269 c 0.30564,-0.40938 0.44453,-0.87482 0.34131,-1.14381 -0.16137,-0.42052 -0.20888,-0.42203 -0.65238,-0.0207 -0.5937,0.53728 -0.93912,0.54641 -1.36272,0.036 -0.5266,-0.63452 -0.868,-0.46819 -0.67886,0.33073 0.18617,0.78636 1.11766,1.72787 1.56271,1.57952 0.15102,-0.0503 0.50649,-0.40215 0.78994,-0.78179 z m 7.76801,0.28063 c 0.33681,-0.31641 0.61237,-0.85219 0.61237,-1.19062 0,-0.7291 -0.18603,-0.76844 -0.83906,-0.17746 -0.45023,0.40745 -0.51748,0.40745 -0.96771,0 -0.66148,-0.59863 -0.83906,-0.55131 -0.83906,0.22358 0,0.60417 0.80419,1.71979 1.23971,1.71979 0.0998,0 0.45695,-0.25888 0.79375,-0.57529 z m -3.63268,-3.58157 c 0.46194,-1.33627 0.17123,-1.78464 -0.56683,-0.87421 l -0.53299,0.65748 -0.52095,-0.64335 c -0.40986,-0.50616 -0.56848,-0.56644 -0.74385,-0.28268 -0.23143,0.37447 0.0714,1.44666 0.58255,2.06257 0.56261,0.6779 1.37463,0.25878 1.78207,-0.91981 z m 7.25806,-0.30824 c 0.52279,-0.57768 0.89677,-2.41407 0.49162,-2.41407 -0.14782,0 -0.4638,0.29766 -0.70218,0.66146 -0.23837,0.3638 -0.61298,0.66146 -0.83248,0.66146 -0.54884,0 -0.77648,0.71587 -0.37967,1.19399 0.43793,0.52768 0.88109,0.49564 1.42271,-0.10284 z m -15.19346,-0.15352 c 0.36618,-0.44123 0.15612,-0.93763 -0.39677,-0.93763 -0.20634,0 -0.57485,-0.30476 -0.81891,-0.67725 -0.52762,-0.80524 -0.96487,-0.39043 -0.71159,0.67505 0.30945,1.30172 1.24734,1.75909 1.92727,0.93983 z m 3.67542,-1.80509 c 0.4585,-1.20467 0.30241,-1.43442 -0.58119,-0.85546 -0.63204,0.41413 -0.68017,0.40855 -0.95831,-0.11115 -0.45909,-0.85783 -0.89494,-0.6742 -0.70103,0.29535 0.20252,1.01256 0.90408,1.8521 1.45849,1.74533 0.22152,-0.0427 0.57344,-0.52599 0.78204,-1.07407 z m 8.09315,0.544 c 0.22653,-0.32342 0.41188,-0.93948 0.41188,-1.36903 v -0.781 l -0.65869,0.6188 c -0.6181,0.58068 -0.68866,0.59167 -1.14531,0.17841 -0.97306,-0.88061 -1.14742,-0.28337 -0.31557,1.08097 0.61373,1.00657 1.13495,1.08955 1.70769,0.27185 z m -3.68916,-4.17446 c 0.65293,-1.01864 1.25445,-1.85208 1.3367,-1.85208 0.0822,0 0.62577,0.38271 1.20783,0.85047 1.18608,0.95316 1.30696,0.8922 1.87211,-0.94416 0.17261,-0.56085 0.46609,-1.07815 0.65218,-1.14957 0.1861,-0.0714 0.88057,0.0772 1.54327,0.33033 0.6627,0.25309 1.26966,0.39541 1.3488,0.31627 0.23583,-0.23583 -0.99272,-1.25686 -2.34257,-1.94687 l -1.26084,-0.64451 -0.2584,0.67965 c -0.14212,0.3738 -0.33207,0.97317 -0.42211,1.33193 -0.24624,0.98108 -0.46703,0.97732 -1.43799,-0.0245 -0.48817,-0.50366 -1.01776,-0.91575 -1.17687,-0.91575 -0.15912,0 -0.74722,0.84781 -1.3069,1.88403 l -1.01761,1.88402 -1.07677,-1.88402 c -0.59223,-1.03622 -1.17105,-1.88403 -1.28627,-1.88403 -0.11522,0 -0.67827,0.42351 -1.25121,0.94113 -1.1626,1.05033 -1.19879,1.03069 -1.85592,-1.00727 -0.17596,-0.54571 -0.42797,-0.99219 -0.56002,-0.99219 -0.46889,0 -2.90664,1.64614 -3.17199,2.14196 -0.33358,0.62331 -0.30813,0.62294 1.32068,-0.0191 1.49728,-0.59017 1.47791,-0.60279 2.11692,1.37916 0.17529,0.54368 0.43022,1.05742 0.56652,1.14166 0.13629,0.0842 0.69052,-0.21176 1.2316,-0.65777 1.07077,-0.88262 1.52656,-1.00327 1.73529,-0.45934 0.2059,0.53657 2.03743,3.35258 2.18052,3.35258 0.0692,0 0.66011,-0.83344 1.31305,-1.85209 z m 5.28977,-16.30778 c 0.5786,-0.5786 0.25368,-0.82006 -1.25488,-0.93253 -1.00137,-0.0747 -1.25677,-0.01 -1.25677,0.3183 0,1.02518 1.68792,1.43797 2.51165,0.61423 z"
       id="path1-8-2"
       inkscape:transform-center-x="171.61907"
       inkscape:transform-center-y="292.56965" /></g></svg>
